<svg xmlns="http://www.w3.org/2000/svg" viewBox="0 0 948.93819 146.89529">
  <title>444</title>
  <g id="Слой_4_копия_" data-name="Слой 4 (копия)">
    <g id="Слой_1_копия_" data-name="Слой 1 (копия)">
      <g>
        <path d="M76.33774,39.84429H27.29424A39.52664,39.52664,0,0,0,12.20791,70.93636c0,21.87492,39.608,64.98465,39.608,64.98465S91.42407,92.81128,91.42407,70.93636A39.52588,39.52588,0,0,0,76.33774,39.84429Z" style="fill: #2f8980"/>
        <circle cx="38.11384" cy="54.01178" r="11.93262" transform="matrix(0.76684, -0.64183, 0.64183, 0.76684, -25.78009, 37.05586)" style="fill: #fff"/>
        <circle cx="38.11387" cy="54.01174" r="4.72551" style="fill: #415050"/>
        <circle cx="65.42477" cy="54.01178" r="11.93262" transform="translate(-19.02962 62.08198) rotate(-45)" style="fill: #fff"/>
        <circle cx="65.4248" cy="54.01174" r="4.7255" style="fill: #415050"/>
        <path d="M91.18387,66.633A19.67366,19.67366,0,0,0,84.278,62.74188c-17.89876-6.04131-32.62091,4.75165-38.04566,27.13144-3.63825,15.00985,1.03367,33.65613,4.97774,45.37937.38024.4219.60581.66832.60581.66832S91.42407,92.81128,91.42407,70.93636A39.94072,39.94072,0,0,0,91.18387,66.633Z" style="fill: #329a93"/>
        <path d="M57.39974,89.87332C51.975,67.49353,37.25283,56.70057,19.354,62.74188a19.67284,19.67284,0,0,0-6.90571,3.891,39.94233,39.94233,0,0,0-.24033,4.30347c0,21.87492,39.608,64.98465,39.608,64.98465s.22558-.24642.606-.66858C56.36594,123.52932,61.038,104.883,57.39974,89.87332Z" style="fill: #40bcb0"/>
        <polygon points="27.294 40.844 27.294 35.019 51.816 40.844 27.294 40.844" style="fill: #2f8980"/>
        <polygon points="51.816 40.844 76.338 35.019 76.338 40.844 51.816 40.844" style="fill: #2f8980"/>
      </g>
    </g>
    <g id="Слой_2_копия_" data-name="Слой 2 (копия)">
      <g>
        <polygon points="51.529 11.993 28.055 23.564 52.028 34.061 75.501 22.491 51.529 11.993" style="fill: #738c96"/>
        <path d="M52.02771,34.06146,37.20713,27.57121V37.89028a40.64957,40.64957,0,0,0,29.14242,0V27.00217Z" style="fill: #415050"/>
      </g>
    </g>
  </g>
  <g id="Слой_3" data-name="Слой 3">
    <text transform="translate(112.969 61.79876)" style="font-size: 59.455440521240234px;fill: #2f8980;font-family: Calibri-Bold, Calibri;font-weight: 700">П<tspan x="37.4502" y="0" style="letter-spacing: -0.026370523538378023em">О</tspan><tspan x="76.09033" y="0" style="letter-spacing: -0.000008212557937831834em">ЛОЦКИЙ </tspan><tspan x="317.22168" y="0" style="letter-spacing: -0.028316899769644167em">Г</tspan><tspan x="341.23047" y="0">ОС</tspan><tspan x="412.90723" y="0" style="letter-spacing: -0.07422509864212412em">У</tspan><tspan x="441.03809" y="0">ДАРСТВЕННЫЙ</tspan><tspan x="0" y="59.45557">Э</tspan><tspan x="32.021" y="59.45557" style="letter-spacing: -0.0253850165858382em">К</tspan><tspan x="63.98438" y="59.45557">ОНОМИЧ</tspan><tspan x="306.48047" y="59.45557" style="letter-spacing: -0.0224695585179079em">Е</tspan><tspan x="334.14648" y="59.45557">СКИЙ </tspan><tspan x="490.04297" y="59.45557" style="letter-spacing: -0.025393229143776033em">К</tspan><tspan x="522.00586" y="59.45557" style="letter-spacing: -0.02636231098044019em">О</tspan><tspan x="560.64648" y="59.45557">ЛЛ</tspan><tspan x="635.42969" y="59.45557" style="letter-spacing: -0.00487825941507211em">Е</tspan><tspan x="664.1416" y="59.45557">ДЖ</tspan></text>
  </g>
</svg>
